# xmcd
#
# Track frame offsets:
#	150
#	15871
#	27847
#	48776
#	59193
#	69589
#	83120
#	93474
#	104637
#	114095
#	123434
#	135466
#	148198
#	161590
#	174336
#	186423
#	198484
#	209838
#	220309
#	229957
#	240597
#	251115
#	262325
#	274874
#
# Disc length: 3819 seconds
#
# Revision: 1
# Processed by: cddbd v1.5.2PL0 Copyright (c) Steve Scherf et al.
# Submitted via: audiograbber 1.83.01
#
DISCID=6f0ee918
DTITLE=slim whitman - seven classic albums cd2
DYEAR=2013
DGENRE=country
TTITLE0=sweeter than the flowers
TTITLE1=blue eyes crying in the rain
TTITLE2=eileen
TTITLE3=straight from heaven
TTITLE4=most beautiful
TTITLE5=molly darling
TTITLE6=it sure looks lonesome outside
TTITLE7=annie laurie
TTITLE8=the old spinning wheel
TTITLE9=in a hundred years or more
TTITLE10=yesterday's love
TTITLE11=ten thousand teardrops
TTITLE12=vaya con dios
TTITLE13=just call me lonesome
TTITLE14=it's a sin
TTITLE15=i love you because
TTITLE16=sail along silv'ry moon
TTITLE17=remember me (i'm the one who loves you)
TTITLE18=ramona
TTITLE19=the old lamplighter
TTITLE20=i'd climb the highest mountain
TTITLE21=for all we know
TTITLE22=the bells that broke my heart
TTITLE23=i'll do as much for you someday
EXTD=
EXTT0=
EXTT1=
EXTT2=
EXTT3=
EXTT4=
EXTT5=
EXTT6=
EXTT7=
EXTT8=
EXTT9=
EXTT10=
EXTT11=
EXTT12=
EXTT13=
EXTT14=
EXTT15=
EXTT16=
EXTT17=
EXTT18=
EXTT19=
EXTT20=
EXTT21=
EXTT22=
EXTT23=
PLAYORDER=
